<svg width="48" height="48" viewBox="0 0 48 48" fill="none" xmlns="http://www.w3.org/2000/svg">
<path d="M22.96 28L20.36 20L17.66 28M18.56 25.3H22.06M29.37 20H34.67L29.37 28H34.67M24.165 24H28.165M8.40002 6.5V41.5C8.40002 42.0304 8.61074 42.5391 8.98581 42.9142C9.36088 43.2893 9.86959 43.5 10.4 43.5H12.73V4.5H10.4C9.86959 4.5 9.36088 4.71071 8.98581 5.08579C8.61074 5.46086 8.40002 5.96957 8.40002 6.5Z" stroke="#6D32FF" stroke-width="2" stroke-linecap="round" stroke-linejoin="round"/>
<path d="M12.73 4.5V43.5H37.6C38.1304 43.5 38.6391 43.2893 39.0142 42.9142C39.3893 42.5391 39.6 42.0304 39.6 41.5V6.5C39.6 5.96957 39.3893 5.46086 39.0142 5.08579C38.6391 4.71071 38.1304 4.5 37.6 4.5H12.73Z" stroke="#6D32FF" stroke-width="2" stroke-linecap="round" stroke-linejoin="round"/>
</svg>
