<svg width="48" height="48" viewBox="0 0 48 48" fill="none" xmlns="http://www.w3.org/2000/svg">
<mask id="path-1-inside-1_4_22" fill="white">
<path d="M1.5 6H46.5V9H1.5V6Z"/>
</mask>
<path d="M1.5 6V3H-1.5V6H1.5ZM46.5 6H49.5V3H46.5V6ZM46.5 9V12H49.5V9H46.5ZM1.5 9H-1.5V12H1.5V9ZM1.5 9H46.5V3H1.5V9ZM43.5 6V9H49.5V6H43.5ZM46.5 6H1.5V12H46.5V6ZM4.5 9V6H-1.5V9H4.5Z" fill="#6D32FF" mask="url(#path-1-inside-1_4_22)"/>
<mask id="path-3-inside-2_4_22" fill="white">
<path d="M9 9V33H39V9H9ZM6 6H42V34.5C42 34.8978 41.842 35.2794 41.5607 35.5607C41.2794 35.842 40.8978 36 40.5 36H7.5C7.10218 36 6.72064 35.842 6.43934 35.5607C6.15804 35.2794 6 34.8978 6 34.5V6Z"/>
</mask>
<path d="M9 9V6H6V9H9ZM9 33H6V36H9V33ZM39 33V36H42V33H39ZM39 9H42V6H39V9ZM6 6V3H3V6H6ZM42 6H45V3H42V6ZM6 9V33H12V9H6ZM9 36H39V30H9V36ZM42 33V9H36V33H42ZM39 6H9V12H39V6ZM6 9H42V3H6V9ZM39 6V34.5H45V6H39ZM39 34.5C39 34.1022 39.158 33.7207 39.4393 33.4393L43.682 37.682C44.5259 36.8381 45 35.6935 45 34.5H39ZM39.4393 33.4393C39.7207 33.158 40.1022 33 40.5 33V39C41.6935 39 42.8381 38.5259 43.682 37.682L39.4393 33.4393ZM40.5 33H7.5V39H40.5V33ZM7.5 33C7.89782 33 8.27935 33.158 8.56066 33.4393L4.31802 37.682C5.16194 38.5259 6.30653 39 7.5 39V33ZM8.56066 33.4393C8.84197 33.7206 9 34.1022 9 34.5H3C3 35.6935 3.47411 36.8381 4.31802 37.682L8.56066 33.4393ZM9 34.5V6H3V34.5H9Z" fill="#6D32FF" mask="url(#path-3-inside-2_4_22)"/>
<mask id="path-5-inside-3_4_22" fill="white">
<path d="M15.102 45H11.64L18.42 33.255L21.018 34.755L15.102 45ZM36.378 45H32.916L27 34.755L29.598 33.255L36.378 45Z"/>
</mask>
<path d="M15.102 45V48H16.8339L17.7 46.5002L15.102 45ZM11.64 45L9.04184 43.5002L6.44424 48H11.64V45ZM18.42 33.255L19.92 30.6569L17.3218 29.1568L15.8218 31.7552L18.42 33.255ZM21.018 34.755L23.616 36.2552L25.1163 33.6571L22.518 32.1569L21.018 34.755ZM36.378 45V48H41.5738L38.9762 43.5002L36.378 45ZM32.916 45L30.3181 46.5002L31.1841 48H32.916V45ZM27 34.755L25.5 32.1569L22.9018 33.6571L24.4021 36.2552L27 34.755ZM29.598 33.255L32.1962 31.7552L30.6962 29.1568L28.098 30.6569L29.598 33.255ZM15.102 42H11.64V48H15.102V42ZM14.2382 46.4998L21.0182 34.7548L15.8218 31.7552L9.04184 43.5002L14.2382 46.4998ZM16.92 35.8531L19.518 37.3531L22.518 32.1569L19.92 30.6569L16.92 35.8531ZM18.4201 33.2548L12.5041 43.4998L17.7 46.5002L23.616 36.2552L18.4201 33.2548ZM36.378 42H32.916V48H36.378V42ZM35.514 43.4998L29.598 33.2548L24.4021 36.2552L30.3181 46.5002L35.514 43.4998ZM28.5 37.3531L31.098 35.8531L28.098 30.6569L25.5 32.1569L28.5 37.3531ZM26.9998 34.7548L33.7798 46.4998L38.9762 43.5002L32.1962 31.7552L26.9998 34.7548Z" fill="#6D32FF" mask="url(#path-5-inside-3_4_22)"/>
</svg>
