<svg width="48" height="48" viewBox="0 0 48 48" fill="none" xmlns="http://www.w3.org/2000/svg">
<g clip-path="url(#clip0_4_9)">
<path d="M12.1715 1.71429H3.60003C2.65325 1.71429 1.88574 2.48181 1.88574 3.42858V44.5714C1.88574 45.5182 2.65325 46.2857 3.60003 46.2857H12.1715C13.1182 46.2857 13.8857 45.5182 13.8857 44.5714V3.42858C13.8857 2.48181 13.1182 1.71429 12.1715 1.71429Z" stroke="#6D32FF" stroke-width="3" stroke-linecap="round" stroke-linejoin="round"/>
<path d="M24.1715 8.57144H15.6C14.6533 8.57144 13.8857 9.33895 13.8857 10.2857V44.5714C13.8857 45.5182 14.6533 46.2857 15.6 46.2857H24.1715C25.1182 46.2857 25.8857 45.5182 25.8857 44.5714V10.2857C25.8857 9.33895 25.1182 8.57144 24.1715 8.57144Z" stroke="#6D32FF" stroke-width="3" stroke-linecap="round" stroke-linejoin="round"/>
<path d="M35.6456 7.63281L28.9936 9.29751C28.0752 9.52736 27.517 10.4582 27.7468 11.3767L36.0703 44.6367C36.3001 45.5552 37.231 46.1134 38.1495 45.8835L44.8015 44.2188C45.7199 43.989 46.2782 43.0581 46.0483 42.1397L37.7248 8.87964C37.495 7.96119 36.5641 7.40296 35.6456 7.63281Z" stroke="#6D32FF" stroke-width="3" stroke-linecap="round" stroke-linejoin="round"/>
</g>
<defs>
<clipPath id="clip0_4_9">
<rect width="48" height="48" fill="white"/>
</clipPath>
</defs>
</svg>
