<svg width="48" height="48" viewBox="0 0 48 48" fill="none" xmlns="http://www.w3.org/2000/svg">
<g clip-path="url(#clip0_3_6)">
<path d="M44.1069 11.9792L34.1827 16.4583V11.0833C34.1827 10.133 33.8119 9.22154 33.1519 8.54953C32.4919 7.87753 31.5968 7.5 30.6634 7.5H4.26923C3.33587 7.5 2.44074 7.87753 1.78076 8.54953C1.12077 9.22154 0.75 10.133 0.75 11.0833V36.1667C0.75 37.117 1.12077 38.0285 1.78076 38.7005C2.44074 39.3725 3.33587 39.75 4.26923 39.75H30.6634C31.5968 39.75 32.4919 39.3725 33.1519 38.7005C33.8119 38.0285 34.1827 37.117 34.1827 36.1667V30.7917L44.1069 35.2708C44.3744 35.376 44.6632 35.4129 44.948 35.3785C45.2328 35.344 45.5049 35.2392 45.7409 35.0732C45.9768 34.9072 46.1693 34.6849 46.3016 34.4258C46.4339 34.1668 46.502 33.8787 46.5 33.5867V13.6633C46.502 13.3713 46.4339 13.0832 46.3016 12.8242C46.1693 12.5651 45.9768 12.3428 45.7409 12.1768C45.5049 12.0108 45.2328 11.906 44.948 11.8715C44.6632 11.8371 44.3744 11.874 44.1069 11.9792Z" stroke="#6D32FF" stroke-width="3" stroke-linecap="round" stroke-linejoin="round"/>
<path d="M34.125 16.5V30.75" stroke="#6D32FF" stroke-width="2.8"/>
</g>
<defs>
<clipPath id="clip0_3_6">
<rect width="48" height="48" fill="white"/>
</clipPath>
</defs>
</svg>
