<svg width="58" height="58" viewBox="0 0 58 58" fill="none" xmlns="http://www.w3.org/2000/svg">
<path d="M16.1762 26.419C16.0235 26.7763 15.9465 27.1614 15.95 27.55C15.9587 27.9467 16.0352 28.3391 16.1762 28.71C16.3099 29.0519 16.5191 29.3592 16.7881 29.609C17.0607 29.87 17.3739 30.073 17.7161 30.2238C18.0743 30.3769 18.4605 30.4539 18.85 30.45C19.2407 30.4678 19.6299 30.3902 19.9839 30.2238C20.3293 30.0689 20.6437 29.8528 20.9119 29.5858C21.181 29.32 21.3939 29.0029 21.5379 28.6531C21.6819 28.3034 21.754 27.9282 21.75 27.55C21.7503 27.1617 21.6734 26.7773 21.5238 26.419C21.38 26.0683 21.1635 25.752 20.8887 25.491C20.6164 25.2358 20.3026 25.0289 19.9607 24.8791C19.6103 24.7269 19.2321 24.6488 18.85 24.65C18.459 24.6369 18.0705 24.7164 17.7161 24.882C17.0259 25.1782 16.475 25.7299 16.1762 26.419ZM16.1762 38.019C16.0235 38.3763 15.9465 38.7614 15.95 39.15C15.9591 39.5458 16.0355 39.9371 16.1762 40.3071C16.3092 40.651 16.5184 40.9604 16.7881 41.2119C17.0607 41.4671 17.3739 41.6759 17.7161 41.8209C18.0741 41.975 18.4603 42.053 18.85 42.05C19.2407 42.0678 19.6299 41.9902 19.9839 41.8238C20.6752 41.5262 21.2263 40.9752 21.5238 40.2839C21.6748 39.9254 21.7526 39.5404 21.7526 39.1514C21.7526 38.7625 21.6748 38.3775 21.5238 38.019C21.3803 37.6673 21.1639 37.35 20.8887 37.0881C20.617 36.8329 20.303 36.6268 19.9607 36.4791C19.6108 36.3247 19.2324 36.2457 18.85 36.2471C18.4589 36.2327 18.0701 36.3122 17.7161 36.4791C17.0248 36.7767 16.4738 37.3277 16.1762 38.019ZM27.6921 29C27.2767 29.0069 26.8746 28.8531 26.5698 28.5708V28.5592C26.4238 28.4334 26.3067 28.2776 26.2264 28.1025C26.1461 27.9273 26.1046 27.7369 26.1046 27.5442C26.1046 27.3515 26.1461 27.1611 26.2264 26.9859C26.3067 26.8108 26.4238 26.655 26.5698 26.5292C26.8754 26.2462 27.2786 26.0924 27.695 26.1H40.455C40.872 26.0963 41.2743 26.2543 41.5773 26.5408C41.7229 26.6668 41.8396 26.8227 41.9196 26.9978C41.9996 27.173 42.041 27.3633 42.041 27.5558C42.041 27.7483 41.9996 27.9386 41.9196 28.1137C41.8396 28.2889 41.7229 28.4448 41.5773 28.5708C41.2725 28.8531 40.8704 29.0069 40.455 29H27.695H27.6921ZM26.5698 40.1708C26.876 40.4528 27.2788 40.6064 27.695 40.6H40.455C40.7577 40.604 41.0556 40.5233 41.3148 40.367C41.5741 40.2107 41.7846 39.9851 41.9224 39.7155C42.0436 39.4511 42.0754 39.1545 42.0132 38.8704C41.9509 38.5864 41.7979 38.3303 41.5773 38.1408C41.2733 37.8558 40.8717 37.6981 40.455 37.7H27.695C27.3925 37.6971 27.0953 37.7787 26.8366 37.9354C26.5779 38.0922 26.368 38.318 26.2305 38.5874C26.1097 38.8511 26.0778 39.1469 26.1395 39.4304C26.2012 39.7138 26.3532 39.9696 26.5727 40.1592V40.1708H26.5698ZM8.70001 17.4C8.70001 15.0926 9.61662 12.8797 11.2482 11.2482C12.8797 9.6166 15.0926 8.7 17.4 8.7H40.6C42.9074 8.7 45.1203 9.6166 46.7518 11.2482C48.3834 12.8797 49.3 15.0926 49.3 17.4V40.6C49.3 42.9074 48.3834 45.1203 46.7518 46.7518C45.1203 48.3834 42.9074 49.3 40.6 49.3H17.4C15.0926 49.3 12.8797 48.3834 11.2482 46.7518C9.61662 45.1203 8.70001 42.9074 8.70001 40.6V17.4ZM17.4 11.6C15.8618 11.6 14.3865 12.2111 13.2988 13.2988C12.2111 14.3865 11.6 15.8617 11.6 17.4H46.4C46.4 15.8617 45.7889 14.3865 44.7012 13.2988C43.6135 12.2111 42.1383 11.6 40.6 11.6H17.4ZM46.4 20.3H11.6V40.6C11.6 42.1383 12.2111 43.6135 13.2988 44.7012C14.3865 45.7889 15.8618 46.4 17.4 46.4H40.6C42.1383 46.4 43.6135 45.7889 44.7012 44.7012C45.7889 43.6135 46.4 42.1383 46.4 40.6V20.3Z" fill="#6D32FF"/>
</svg>
