<svg width="50" height="50" viewBox="0 0 50 50" fill="none" xmlns="http://www.w3.org/2000/svg">
<path fill-rule="evenodd" clip-rule="evenodd" d="M44.0476 25V10.7143C44.0476 9.45136 43.5459 8.24015 42.6529 7.34712C41.7599 6.45409 40.5487 5.95239 39.2857 5.95239H25C23.7371 5.95239 22.5259 6.45409 21.6328 7.34712C20.7398 8.24015 20.2381 9.45136 20.2381 10.7143V25C20.2381 26.2629 20.7398 27.4742 21.6328 28.3672C22.5259 29.2602 23.7371 29.7619 25 29.7619H39.2857C40.5487 29.7619 41.7599 29.2602 42.6529 28.3672C43.5459 27.4742 44.0476 26.2629 44.0476 25Z" stroke="#6D32FF" stroke-width="2" stroke-linecap="round" stroke-linejoin="round"/>
<path d="M15.4762 20.2452H10.7143C9.45136 20.2452 8.24015 20.7469 7.34712 21.64C6.45409 22.533 5.95239 23.7442 5.95239 25.0071V39.2929C5.95239 40.5558 6.45409 41.767 7.34712 42.66C8.24015 43.5531 9.45136 44.0548 10.7143 44.0548H10.7214L25.0072 44.031C26.2689 44.0291 27.4782 43.5265 28.3697 42.6337C29.2612 41.7409 29.7619 40.5307 29.7619 39.269V34.5238M17.8572 29.769H10.7143" stroke="#6D32FF" stroke-width="2" stroke-linecap="round" stroke-linejoin="round"/>
<path d="M21.4286 33.3333L19.0477 35.7143C18.2524 36.5072 16.2715 37.6976 13.0953 39.2857" stroke="#6D32FF" stroke-width="2" stroke-linecap="round" stroke-linejoin="round"/>
<path d="M13.0953 29.7691C13.8905 32.5452 15.081 34.531 16.6667 35.7191C18.2524 36.9072 20.2381 38.0952 22.6191 39.2857M25 25L32.1429 10.7143L39.2858 25M36.9048 20.2381H27.381" stroke="#6D32FF" stroke-width="2" stroke-linecap="round" stroke-linejoin="round"/>
</svg>
