<svg width="21" height="20" viewBox="0 0 21 20" fill="none" xmlns="http://www.w3.org/2000/svg">
<path d="M15.1406 0.197144C18.4957 0.197144 20.7423 2.55265 20.7423 6.05622V14.1431C20.7423 17.6358 18.4957 19.9913 15.1406 19.9913H6.55977C3.20466 19.9913 0.94812 17.6358 0.94812 14.1431V6.05622C0.94812 2.55265 3.20466 0.197144 6.55977 0.197144H15.1406ZM14.9822 7.12511C14.6457 6.78861 14.0915 6.78861 13.755 7.12511L11.3995 9.48062C10.4429 10.4372 8.89202 10.4372 7.93547 9.48062C7.59897 9.14412 7.04473 9.14412 6.70823 9.48062C6.37173 9.81712 6.37173 10.3615 6.70823 10.7079L9.06374 13.0535C9.23199 13.2217 9.44973 13.3009 9.66746 13.3009C9.89509 13.3009 10.1128 13.2217 10.2811 13.0535L14.9822 8.35235C15.3187 8.01585 15.3187 7.47151 14.9822 7.12511Z" fill="white"/>
</svg>
